<?xml version="1.0" encoding="utf-8"?>
<!-- Generator: Adobe Illustrator 23.1.1, SVG Export Plug-In . SVG Version: 6.00 Build 0)  -->
<svg version="1.1" id="Layer_1" xmlns="http://www.w3.org/2000/svg" xmlns:xlink="http://www.w3.org/1999/xlink" x="0px" y="0px"
	 viewBox="0 0 4000 4000" style="enable-background:new 0 0 4000 4000;" xml:space="preserve">
<style type="text/css">
	.st0{fill:#333333;}
</style>
<g id="XMLID_4_">
	<path id="XMLID_17_" class="st0" d="M2000,2582.39c21.6,0,43.04,0.44,64.25,1.31v-98.6H1944.3v98.27
		C1962.72,2582.72,1981.3,2582.39,2000,2582.39z"/>
	<path id="XMLID_25_" class="st0" d="M2129.28,1556.19c-29.49-16.91-67.65-27.27-109.09-29.81l3.18-210.34
		c30.92-9.91,53.38-38.93,53.38-73.1c0-42.32-34.43-76.75-76.75-76.75c-42.32,0-76.75,34.43-76.75,76.75
		c0,36.6,25.75,67.27,60.09,74.9l-3.15,208.51c-41.58,2.5-79.89,12.87-109.47,29.84c-20.24,11.61-34.51,25.22-41.93,39.68h342.42
		C2163.79,1581.41,2149.52,1567.8,2129.28,1556.19z"/>
	<path id="XMLID_26_" class="st0" d="M2607.47,1915.63c0-74.35-60.49-134.84-134.84-134.84h-24.23v269.67h24.23
		C2546.98,2050.47,2607.47,1989.98,2607.47,1915.63z"/>
	<path id="XMLID_32_" class="st0" d="M1527.36,2050.47h32.78V1780.8h-32.78c-74.35,0-134.84,60.49-134.84,134.84
		C1392.53,1989.98,1453.02,2050.47,1527.36,2050.47z"/>
	<path id="XMLID_33_" class="st0" d="M2556.07,2767.67c-29.35-27.93-71.85-53.2-126.32-75.13
		c-114.48-46.08-267.1-71.45-429.75-71.45c-162.65,0-315.27,25.38-429.75,71.45c-54.48,21.93-96.98,47.2-126.32,75.13
		c-19.13,18.2-31.86,36.85-38.09,55.72h1188.32C2587.93,2804.53,2575.2,2785.87,2556.07,2767.67z"/>
	<path id="XMLID_36_" class="st0" d="M1684.99,2445.44h638.56c47.51,0,86.16-38.65,86.16-86.16v-270.5h-1.69v-55.03h1.69v-308.36
		h-1.69v-21.66c-7.91-39.4-42.78-69.16-84.47-69.16h-638.56c-47.51,0-86.16,38.65-86.16,86.16v638.56
		C1598.83,2406.79,1637.49,2445.44,1684.99,2445.44z M2193.75,2168.4l-28.7,53.24c-2.79,5.17-7.34,8.25-12.2,8.25h-292.59
		c-4.53,0-8.8-2.67-11.63-7.26l-33.25-53.99c-5.14-8.34-4.1-20.52,2.33-27.19v0c6.42-6.67,15.8-5.32,20.94,3.02l24.31,39.47
		c2.83,4.59,7.11,7.26,11.63,7.26h262.76c4.86,0,9.42-3.08,12.2-8.25l19.8-36.74c4.72-8.75,14.01-10.88,20.74-4.75l0,0
		C2196.83,2147.58,2198.47,2159.65,2193.75,2168.4z M2189.87,1840.88c41.22,0,74.75,33.54,74.75,74.76
		c0,41.22-33.53,74.76-74.75,74.76c-41.22,0-74.76-33.54-74.76-74.76C2115.11,1874.41,2148.65,1840.88,2189.87,1840.88z
		 M1818.69,1840.88c41.22,0,74.76,33.54,74.76,74.76c0,41.22-33.54,74.76-74.76,74.76c-41.22,0-74.76-33.54-74.76-74.76
		C1743.93,1874.41,1777.47,1840.88,1818.69,1840.88z"/>
</g>
</svg>
